<svg xmlns="http://www.w3.org/2000/svg" viewBox="0 0 64 64">
  <defs>
    <linearGradient id="bg" x1="10" x2="54" y1="8" y2="58" gradientUnits="userSpaceOnUse">
      <stop stop-color="#174c43" />
      <stop offset="1" stop-color="#0f302b" />
    </linearGradient>
    <filter id="routeShadow" x="-20%" y="-20%" width="140%" height="140%">
      <feDropShadow dx="0" dy="2" stdDeviation="1.5" flood-color="#08221e" flood-opacity="0.35" />
    </filter>
  </defs>
  <rect width="64" height="64" rx="16" fill="url(#bg)" />
  <path
    d="M16 23.5h22.5c6.9 0 6.9 10.4 0 10.4h-14c-6.8 0-6.8 10.4 0 10.4H47"
    fill="none"
    stroke="#fff8ea"
    stroke-linecap="round"
    stroke-linejoin="round"
    stroke-width="5.6"
    filter="url(#routeShadow)"
  />
  <path
    d="M46.8 13.8c-6 0-10.8 4.8-10.8 10.8 0 8 10.8 17.5 10.8 17.5s10.8-9.5 10.8-17.5c0-6-4.8-10.8-10.8-10.8Z"
    fill="#f06f4f"
  />
  <circle cx="46.8" cy="24.7" r="4.2" fill="#123d36" />
  <path d="m16.7 41.2 2.1 4.7 4.7 2.1-4.7 2.1-2.1 4.7-2.1-4.7-4.7-2.1 4.7-2.1 2.1-4.7Z" fill="#f06f4f" />
  <circle cx="27.8" cy="49.1" r="2.1" fill="#f06f4f" />
  <circle cx="34.6" cy="49.1" r="2.1" fill="#f06f4f" />
</svg>
